# xmcd CD database file
#
# Track frame offsets:
#	150
#	16880
#	39105
#	62425
#	74385
#	90465
#	104170
#	116585
#	130802
#	151250
#	166955
#	179827
#	195207
#	216157
#	240527
#	251770
#	266510
#	280195
#	290887
#	305815
#	319485
#	339640
#
# Disc length: 4772 seconds
#
# Revision: 2
# Processed by: cddbd v1.5.2PL0 Copyright (c) Steve Scherf et al.
# Submitted via: CDex 1.51
#
DISCID=4a12a216
DTITLE=Motorhead - THE COMPLETE BEST OF MOTORHEAD
DYEAR=1900
DGENRE=
TTITLE0=BOMBER
TTITLE1=STONE DEAD FOREVER
TTITLE2=Overkill
TTITLE3=NO CLASS
TTITLE4=METROPOLIS
TTITLE5=Damage Case
TTITLE6=ACE OF SPADES
TTITLE7=(WE ARE) THE ROAD CREW
TTITLE8=CAPRICORN
TTITLE9=MOTORHEAD
TTITLE10=Iron Fist
TTITLE11=Too Late, Too Late
TTITLE12=KILLED BY DEATH
TTITLE13=Orgasmatron
TTITLE14=GOING TO BRAZIL
TTITLE15=Sacrifice
TTITLE16=CIVIL WAR
TTITLE17=WE ARE MOTORHEAD
TTITLE18=GOD SAVE THE QUEEN
TTITLE19=STAY OUT OF JAIL
TTITLE20=VOICES FROM THE WAR
TTITLE21=Brave New World
EXTD=
EXTT0=
EXTT1=
EXTT2=
EXTT3=
EXTT4=
EXTT5=
EXTT6=
EXTT7=
EXTT8=
EXTT9=
EXTT10=
EXTT11=
EXTT12=
EXTT13=
EXTT14=
EXTT15=
EXTT16=
EXTT17=
EXTT18=
EXTT19=
EXTT20=
EXTT21=
PLAYORDER=
